<?xml version="1.0" standalone="no"?>
<!DOCTYPE svg PUBLIC "-//W3C//DTD SVG 20010904//EN"
 "http://www.w3.org/TR/2001/REC-SVG-20010904/DTD/svg10.dtd">
<svg version="1.0" xmlns="http://www.w3.org/2000/svg"
 width="256.000000pt" height="256.000000pt" viewBox="0 0 256.000000 256.000000"
 preserveAspectRatio="xMidYMid meet">
<metadata>
Created by potrace 1.11, written by Peter Selinger 2001-2013
</metadata>
<g transform="translate(0.000000,256.000000) scale(0.100000,-0.100000)"
fill="#000000" stroke="none">
<path d="M330 2422 c-25 -1 -59 -4 -76 -7 -58 -10 -102 -66 -105 -135 -1 -25
-7 -51 -13 -59 -8 -11 -8 -13 2 -7 7 4 12 1 12 -9 0 -10 -5 -13 -12 -9 -10 6
-10 5 -1 -7 13 -16 12 -36 -1 -58 -6 -10 -5 -12 2 -7 7 4 12 1 12 -9 0 -9 -4
-14 -8 -11 -5 3 -9 -1 -9 -9 0 -8 4 -12 9 -9 4 3 8 -2 8 -11 0 -9 -4 -13 -10
-10 -5 3 -10 1 -10 -4 0 -6 5 -11 10 -11 6 0 10 -7 10 -15 0 -8 -6 -15 -12
-15 -8 0 -9 -3 -3 -8 15 -11 16 -65 2 -74 -9 -6 -9 -8 0 -8 14 0 13 -46 -1
-68 -4 -7 -2 -12 5 -12 8 0 7 -5 -2 -17 -8 -9 -9 -14 -3 -10 13 7 13 -61 1
-80 -5 -8 -4 -13 2 -13 13 0 10 -22 -4 -32 -6 -5 -5 -8 3 -8 6 0 12 -7 12 -16
0 -8 -5 -12 -11 -8 -8 5 -8 1 0 -13 7 -14 7 -23 -1 -31 -9 -9 -9 -12 1 -12 11
0 11 -3 0 -17 -10 -11 -10 -14 -1 -9 15 9 15 1 1 -26 -8 -15 -8 -19 0 -14 6 4
11 4 11 1 0 -4 -5 -16 -11 -27 -8 -15 -8 -19 0 -14 14 9 14 0 0 -26 -8 -15 -8
-19 0 -14 14 9 14 0 0 -25 -7 -14 -7 -24 0 -33 7 -9 7 -16 -1 -24 -9 -9 -9
-12 1 -12 11 0 11 -3 0 -17 -8 -9 -9 -14 -3 -10 12 7 13 -100 1 -120 -5 -8 -4
-13 2 -13 6 0 11 -10 11 -22 0 -19 -2 -20 -10 -8 -6 9 -10 10 -10 3 0 -6 5
-15 10 -18 8 -5 7 -11 -1 -21 -9 -11 -9 -14 1 -14 9 0 9 -4 -1 -17 -10 -11
-10 -14 -2 -9 16 9 16 1 2 -26 -8 -15 -8 -19 0 -14 14 9 14 0 0 -26 -8 -15 -8
-19 0 -14 6 4 11 4 11 1 0 -4 -5 -16 -11 -27 -8 -15 -8 -19 0 -14 14 9 14 0 0
-25 -7 -14 -7 -24 0 -33 7 -9 7 -16 -1 -24 -9 -9 -9 -12 1 -12 11 0 11 -3 0
-17 -8 -9 -9 -14 -3 -10 12 7 13 -100 1 -120 -5 -8 -4 -13 2 -13 6 0 11 -10
11 -22 0 -19 -2 -20 -10 -8 -6 9 -10 10 -10 3 0 -6 5 -15 10 -18 8 -5 7 -11
-1 -21 -9 -11 -9 -14 1 -14 9 0 9 -4 -1 -17 -10 -11 -10 -14 -2 -9 16 9 16 1
2 -26 -8 -15 -8 -19 0 -14 14 9 14 0 0 -26 -8 -15 -8 -19 0 -14 6 4 11 4 11 1
0 -4 -5 -16 -11 -27 -8 -15 -8 -19 0 -14 14 9 14 0 0 -25 -7 -14 -7 -24 0 -33
7 -9 7 -16 -1 -24 -9 -9 -9 -12 1 -12 11 0 11 -3 0 -17 -8 -9 -9 -14 -3 -10
13 7 13 -61 1 -80 -5 -8 -3 -13 4 -13 7 0 9 -3 6 -6 -3 -4 -2 -16 4 -27 9 -15
8 -18 -3 -12 -7 3 -5 0 5 -8 18 -15 24 -32 7 -22 -6 4 -7 -1 -3 -11 4 -11 8
-13 11 -6 2 7 8 12 13 12 6 0 7 -4 4 -10 -3 -5 -2 -10 4 -10 5 0 13 -9 16 -20
3 -11 11 -20 17 -20 6 0 6 6 -2 15 -17 20 -6 19 15 -2 14 -14 18 -14 27 -2 8
11 9 11 5 -2 -6 -18 23 -21 35 -4 5 6 8 3 8 -7 0 -9 5 -20 11 -23 6 -4 9 0 7
10 -2 12 5 19 20 21 12 2 22 0 22 -5 0 -6 -9 -8 -20 -6 -12 2 -18 0 -15 -6 4
-5 11 -6 17 -3 7 5 9 1 5 -9 -3 -10 -2 -17 3 -17 6 0 10 6 10 14 0 19 101 16
125 -4 11 -8 16 -10 12 -3 -12 20 14 26 29 7 14 -18 14 -18 5 3 -6 12 -11 24
-11 27 0 6 48 -3 69 -13 9 -4 23 -7 31 -6 8 0 19 -4 23 -10 5 -5 6 0 2 12 -6
23 4 24 57 7 16 -5 19 -3 13 7 -5 8 1 5 13 -5 12 -11 22 -15 22 -11 0 5 7 0
16 -11 15 -18 15 -18 5 3 -15 29 -15 29 18 28 21 0 27 -3 20 -12 -7 -7 -6 -14
2 -19 8 -4 9 -3 5 4 -5 8 1 12 15 12 19 0 20 -2 8 -17 -11 -15 -10 -14 9 1 24
21 29 31 10 20 -7 -4 -10 -4 -6 1 4 4 25 8 47 9 29 1 37 -2 29 -11 -7 -9 -4
-11 11 -10 11 0 19 4 18 7 -2 6 8 10 29 10 8 0 12 -5 9 -10 -4 -6 -3 -9 2 -8
4 1 19 -4 33 -11 l25 -13 -22 21 c-28 26 -28 27 -4 27 11 0 19 -4 18 -9 -1 -5
4 -12 11 -14 7 -3 10 1 7 9 -4 9 0 15 9 15 9 0 12 -6 8 -16 -5 -14 -3 -14 10
-3 14 11 18 10 28 -5 9 -16 10 -15 5 7 -6 24 -5 24 9 6 15 -18 21 -15 17 7 -2
11 17 0 48 -27 l24 -21 -16 25 c-16 26 -16 26 14 25 16 0 34 -7 39 -15 6 -8
10 -10 10 -4 0 7 7 15 16 18 14 5 15 4 5 -8 -9 -11 -9 -16 0 -22 8 -4 9 -3 5
4 -5 8 1 12 15 12 22 0 22 0 3 -22 -17 -21 -16 -21 9 1 29 26 35 37 15 25 -7
-4 -10 -4 -6 1 4 4 25 8 47 9 29 1 37 -2 29 -11 -7 -9 -4 -11 11 -10 11 0 19
4 18 7 -2 6 8 10 29 10 8 0 12 -5 9 -10 -4 -6 -3 -9 2 -8 4 1 19 -4 33 -11
l25 -13 -22 21 c-28 26 -28 27 -4 27 11 0 19 -4 18 -9 -1 -5 4 -12 11 -14 7
-3 10 1 7 9 -4 9 0 15 9 15 8 0 12 -6 9 -13 -2 -6 1 -15 8 -20 7 -4 10 -3 5 4
-3 6 -2 13 3 17 5 3 15 -3 21 -12 9 -15 10 -14 5 7 -6 24 -5 24 9 6 15 -18 21
-15 17 7 -2 11 17 0 48 -27 l24 -21 -16 25 c-16 26 -16 26 14 25 16 0 34 -7
39 -15 6 -8 10 -10 10 -4 0 7 7 15 16 18 14 5 15 4 5 -8 -9 -11 -9 -16 0 -22
8 -4 9 -3 5 4 -5 8 1 12 15 12 22 0 22 0 3 -22 -17 -21 -16 -21 9 1 29 26 35
37 15 25 -7 -4 -10 -4 -6 1 4 4 25 8 47 9 29 1 37 -2 29 -11 -7 -9 -4 -11 11
-10 11 0 19 4 18 7 -2 6 8 10 29 10 8 0 12 -5 9 -10 -4 -6 -3 -9 2 -8 4 1 19
-4 33 -11 l25 -13 -22 21 c-28 26 -28 27 -4 27 11 0 19 -4 18 -9 -1 -5 4 -12
11 -14 7 -3 10 1 7 9 -4 9 0 15 9 15 9 0 12 -6 8 -16 -5 -14 -3 -14 10 -3 14
11 18 10 28 -5 9 -16 10 -15 5 7 -6 24 -5 24 9 6 15 -18 21 -15 17 7 -2 11 17
0 48 -27 l24 -21 -16 25 c-16 26 -16 26 13 25 17 0 36 -9 45 -20 15 -19 15
-19 13 -1 -2 15 4 19 34 20 20 1 43 8 52 15 9 7 23 11 31 7 9 -3 13 -2 10 4
-6 10 21 58 45 78 8 7 11 11 5 10 -5 -2 -10 2 -10 7 0 6 5 9 10 7 6 -2 4 2 -2
9 -14 15 -18 33 -5 25 5 -3 9 1 9 9 0 8 -4 12 -9 9 -13 -8 -10 10 5 25 10 11
10 13 0 7 -8 -4 -13 -1 -13 8 0 9 5 16 10 16 6 0 10 5 10 11 0 5 -4 8 -8 5 -5
-3 -8 21 -8 54 0 32 3 57 7 54 4 -2 11 0 14 6 4 6 3 10 -2 9 -20 -4 -24 2 -12
18 10 11 10 14 2 9 -16 -9 -17 6 -1 22 9 9 9 12 -1 12 -11 0 -11 3 0 17 8 9 9
14 3 10 -12 -7 -13 101 -1 121 5 7 3 12 -4 12 -8 0 -7 5 2 17 10 11 10 14 2 9
-16 -9 -16 -1 -2 26 6 11 7 18 2 15 -12 -7 -11 63 0 81 5 7 3 12 -4 12 -8 0
-7 5 2 17 10 11 10 14 2 9 -16 -9 -16 -1 -2 26 6 11 7 18 2 15 -11 -7 -11 62
-1 78 4 6 3 17 -3 25 -11 18 -12 33 -1 26 4 -2 8 4 8 14 0 10 -3 17 -6 15 -4
-2 -6 15 -5 38 2 23 4 42 5 42 1 0 3 10 4 22 1 12 -1 20 -6 17 -11 -7 -10 3 3
28 6 11 7 18 2 15 -11 -7 -11 62 -1 78 4 6 3 17 -3 25 -11 18 -12 33 -1 26 4
-2 8 4 8 14 0 10 -3 17 -6 15 -4 -2 -6 15 -5 38 2 23 4 42 5 42 1 0 3 10 4 22
1 12 -1 20 -6 17 -11 -7 -10 3 3 28 6 11 7 18 2 15 -12 -7 -11 63 0 81 5 7 3
12 -4 12 -8 0 -7 5 2 17 10 11 10 14 2 9 -16 -9 -16 -1 -2 26 6 11 7 18 2 15
-12 -7 -11 63 0 81 5 7 3 12 -4 12 -8 0 -7 5 2 17 8 9 9 14 3 10 -13 -8 -13
71 1 92 5 10 4 12 -3 7 -16 -9 -15 7 0 22 9 9 9 12 -1 12 -11 0 -11 3 0 17 10
11 10 14 2 9 -16 -9 -16 -1 -2 26 8 15 8 19 0 14 -15 -10 -14 7 2 23 9 11 9
13 0 7 -8 -4 -13 -1 -13 8 0 8 6 17 13 19 9 4 8 6 -2 6 -11 1 -11 4 0 18 11
13 11 15 1 9 -10 -6 -12 -1 -9 22 3 17 8 36 13 43 4 8 3 10 -5 5 -8 -5 -11 2
-9 26 2 43 -27 93 -71 120 -33 21 -38 21 -1000 22 -531 1 -986 0 -1011 -2z
m80 -2266 c0 -2 -7 -7 -16 -10 -8 -3 -12 -2 -9 4 6 10 25 14 25 6z m40 0 c0
-2 -7 -7 -16 -10 -8 -3 -12 -2 -9 4 6 10 25 14 25 6z m58 -14 c-7 -8 -14 -9
-23 -2 -6 5 -16 6 -20 2 -5 -4 -6 -2 -3 3 4 6 17 10 31 10 19 0 23 -3 15 -13z
m128 6 c3 -4 -1 -5 -10 -4 -8 1 -18 5 -22 8 -3 4 1 5 10 4 8 -1 18 -5 22 -8z"/>
<path d="M2390 189 c0 -5 5 -7 10 -4 6 3 10 8 10 11 0 2 -4 4 -10 4 -5 0 -10
-5 -10 -11z"/>
<path d="M2335 160 c-3 -5 -1 -10 4 -10 6 0 11 5 11 10 0 6 -2 10 -4 10 -3 0
-8 -4 -11 -10z"/>
<path d="M550 140 c0 -6 7 -10 15 -10 8 0 15 2 15 4 0 2 -7 6 -15 10 -8 3 -15
1 -15 -4z"/>
<path d="M670 140 c0 -6 7 -10 15 -10 8 0 15 2 15 4 0 2 -7 6 -15 10 -8 3 -15
1 -15 -4z"/>
<path d="M976 137 c3 -10 9 -15 12 -12 3 3 0 11 -7 18 -10 9 -11 8 -5 -6z"/>
<path d="M1230 141 c0 -4 10 -12 23 -20 19 -13 21 -12 10 1 -7 8 -11 17 -8 20
3 2 -2 5 -10 5 -8 0 -15 -3 -15 -6z"/>
<path d="M1456 137 c3 -10 9 -15 12 -12 3 3 0 11 -7 18 -10 9 -11 8 -5 -6z"/>
<path d="M1710 141 c0 -4 10 -12 23 -20 19 -13 21 -12 10 1 -7 8 -11 17 -8 20
3 2 -2 5 -10 5 -8 0 -15 -3 -15 -6z"/>
<path d="M1936 137 c3 -10 9 -15 12 -12 3 3 0 11 -7 18 -10 9 -11 8 -5 -6z"/>
<path d="M2190 141 c0 -4 10 -12 23 -20 19 -13 21 -12 10 1 -7 8 -11 17 -8 20
3 2 -2 5 -10 5 -8 0 -15 -3 -15 -6z"/>
<path d="M2284 139 c-3 -6 -2 -15 4 -21 6 -6 12 -6 17 3 6 8 4 10 -5 4 -10 -6
-12 -4 -7 8 7 19 2 23 -9 6z"/>
<path d="M901 123 c6 -7 17 -13 23 -12 7 0 6 2 -2 6 -6 2 -10 8 -8 12 3 4 -1
8 -9 8 -11 0 -12 -4 -4 -14z"/>
<path d="M1176 127 c3 -10 9 -15 12 -12 3 3 0 11 -7 18 -10 9 -11 8 -5 -6z"/>
<path d="M1381 123 c6 -7 17 -13 23 -12 7 0 6 2 -2 6 -6 2 -10 8 -8 12 3 4 -1
8 -9 8 -11 0 -12 -4 -4 -14z"/>
<path d="M1656 127 c3 -10 9 -15 12 -12 3 3 0 11 -7 18 -10 9 -11 8 -5 -6z"/>
<path d="M1861 123 c6 -7 17 -13 23 -12 7 0 6 2 -2 6 -6 2 -10 8 -8 12 3 4 -1
8 -9 8 -11 0 -12 -4 -4 -14z"/>
<path d="M2136 127 c3 -10 9 -15 12 -12 3 3 0 11 -7 18 -10 9 -11 8 -5 -6z"/>
<path d="M718 123 c7 -3 16 -2 19 1 4 3 -2 6 -13 5 -11 0 -14 -3 -6 -6z"/>
</g>
</svg>
